<?xml version="1.0" standalone="no"?>
<!DOCTYPE svg PUBLIC "-//W3C//DTD SVG 20010904//EN"
 "http://www.w3.org/TR/2001/REC-SVG-20010904/DTD/svg10.dtd">
<svg version="1.0" xmlns="http://www.w3.org/2000/svg"
 width="600.000000pt" height="600.000000pt" viewBox="0 0 600.000000 600.000000"
 preserveAspectRatio="xMidYMid meet">

<g transform="translate(0.000000,600.000000) scale(0.100000,-0.100000)"
fill="#000000" stroke="none">
<path d="M2300 3760 l0 -320 453 0 452 0 320 320 320 320 -122 0 -123 0 10
-26 c13 -34 13 -116 -1 -151 -26 -68 -95 -110 -198 -119 l-71 -7 0 -83 0 -84
-131 0 -131 0 -14 38 -15 37 -94 0 -94 0 -15 -37 -14 -38 -82 0 c-78 0 -81 1
-75 21 7 20 6 20 -37 -2 -58 -30 -169 -31 -252 -1 -32 12 -61 24 -63 26 -5 5
43 116 50 116 3 0 24 -9 48 -20 57 -26 130 -26 153 -1 26 28 10 48 -57 71 -87
29 -147 62 -169 91 -26 34 -38 91 -28 134 6 27 5 35 -6 35 -12 0 -14 -53 -14
-320z"/>
<path d="M2703 4050 c-20 -35 -16 -34 -68 -15 -42 15 -112 19 -139 9 -22 -9
-20 -37 4 -52 12 -7 53 -24 93 -38 81 -29 132 -64 142 -95 10 -31 20 -15 64
109 l40 112 -59 0 c-55 0 -60 -2 -77 -30z"/>
<path d="M3080 4073 c-1 -11 103 -303 106 -300 2 1 0 71 -3 155 l-6 152 -49 0
c-26 0 -48 -3 -48 -7z"/>
<path d="M3340 3980 l0 -73 48 7 c30 4 53 13 65 27 38 47 8 96 -65 105 l-48 7
0 -73z"/>
<path d="M2932 3906 c-13 -42 -20 -81 -17 -86 7 -12 82 -13 88 -2 2 4 -8 43
-22 86 l-27 79 -22 -77z"/>
<path d="M3438 3549 c-10 -5 -18 -17 -18 -26 0 -11 5 -9 18 7 14 18 25 21 45
16 35 -8 46 -49 22 -76 -10 -11 -13 -20 -7 -20 13 0 32 32 32 54 0 22 -36 56
-57 56 -10 0 -26 -5 -35 -11z"/>
<path d="M3452 3500 c0 -19 2 -27 5 -17 2 9 2 25 0 35 -3 9 -5 1 -5 -18z"/>
<path d="M3483 3523 c4 -3 2 -12 -4 -19 -7 -8 -6 -14 2 -20 7 -4 9 -3 5 4 -3
6 -2 13 4 17 14 8 13 25 -2 25 -6 0 -8 -3 -5 -7z"/>
<path d="M3420 3481 c0 -10 29 -36 34 -30 1 2 -6 12 -16 22 -10 9 -18 13 -18
8z"/>
</g>
</svg>
