<?xml version="1.0" standalone="no"?>
<!DOCTYPE svg PUBLIC "-//W3C//DTD SVG 20010904//EN"
 "http://www.w3.org/TR/2001/REC-SVG-20010904/DTD/svg10.dtd">
<svg version="1.0" xmlns="http://www.w3.org/2000/svg"
 width="600.000000pt" height="600.000000pt" viewBox="0 0 600.000000 600.000000"
 preserveAspectRatio="xMidYMid meet">

<g transform="translate(0.000000,600.000000) scale(0.100000,-0.100000)"
fill="#000000" stroke="none">
<path d="M1995 4650 l-160 -160 55 0 55 0 105 105 105 105 81 -81 81 -80 52 3
51 3 -132 132 -133 133 -160 -160z"/>
<path d="M2488 4367 l112 -112 -112 -113 -113 -112 60 0 60 0 110 110 110 110
-115 115 -115 115 -55 0 -55 0 113 -113z"/>
<path d="M1518 4403 c-10 -2 -18 -13 -18 -24 0 -16 5 -18 45 -12 29 4 50 1 60
-7 25 -20 18 -40 -14 -40 -48 0 -91 -21 -107 -51 -38 -74 46 -141 116 -92 17
12 25 13 28 5 2 -7 17 -12 33 -12 l29 0 0 85 c0 94 -11 128 -47 144 -24 11
-91 13 -125 4z m107 -140 c-2 -10 -4 -26 -4 -35 -1 -20 -33 -32 -61 -23 -14 4
-20 15 -20 35 0 31 10 38 57 39 25 1 31 -3 28 -16z"/>
<path d="M1803 4394 c-83 -41 -82 -185 1 -219 62 -26 126 -18 126 16 0 15 -7
19 -38 19 -102 0 -113 150 -11 154 34 1 49 11 49 34 0 18 -88 15 -127 -4z"/>
<path d="M2000 4290 l0 -120 30 0 30 0 0 78 c0 64 4 82 18 95 10 10 25 17 33
17 30 0 39 -24 39 -107 l0 -83 35 0 35 0 0 84 c0 88 10 111 47 104 29 -5 44
-48 41 -121 l-3 -67 33 0 32 0 0 88 c0 50 -6 98 -13 112 -22 44 -93 52 -131
15 -14 -14 -17 -14 -36 5 -24 24 -77 27 -106 5 -25 -19 -34 -19 -34 0 0 9 -9
15 -25 15 l-25 0 0 -120z"/>
<path d="M4591 4344 c0 -11 3 -14 6 -6 3 7 2 16 -1 19 -3 4 -6 -2 -5 -13z"/>
<path d="M4613 4338 c-2 -16 1 -17 13 -8 18 15 18 27 1 27 -7 0 -14 -9 -14
-19z"/>
<path d="M1763 4113 c-7 -2 -13 -9 -13 -14 0 -6 5 -7 10 -4 6 3 10 2 10 -4 0
-5 -6 -12 -12 -14 -8 -3 -6 -6 5 -6 12 -1 17 7 17 24 0 14 -1 25 -2 24 -2 0
-9 -3 -15 -6z"/>
<path d="M1981 4092 c0 -16 3 -21 6 -12 3 8 10 18 15 21 5 3 3 9 -6 12 -12 5
-16 0 -15 -21z"/>
<path d="M1630 4105 c0 -5 5 -17 10 -25 5 -8 10 -10 10 -5 0 6 -5 17 -10 25
-5 8 -10 11 -10 5z"/>
<path d="M1667 4090 c3 -11 7 -20 9 -20 2 0 4 9 4 20 0 11 -4 20 -9 20 -5 0
-7 -9 -4 -20z"/>
<path d="M1806 4103 c-10 -10 -7 -33 5 -33 5 0 8 4 5 9 -4 5 -1 11 6 13 8 3 9
6 1 11 -5 4 -13 4 -17 0z"/>
<path d="M1890 4096 c0 -8 4 -17 8 -20 4 -2 8 4 8 15 0 10 -4 19 -8 19 -4 0
-8 -6 -8 -14z"/>
<path d="M1945 4100 c-8 -13 3 -30 18 -30 8 0 7 3 -2 9 -7 5 -10 14 -7 20 4 6
5 11 2 11 -3 0 -8 -4 -11 -10z"/>
<path d="M2036 4094 c-9 -22 -8 -24 9 -24 8 0 15 6 15 14 0 22 -17 28 -24 10z"/>
<path d="M2080 4086 c0 -19 4 -24 15 -19 18 6 16 34 -2 41 -8 2 -13 -6 -13
-22z"/>
<path d="M2132 4090 c0 -14 2 -19 5 -12 2 6 2 18 0 25 -3 6 -5 1 -5 -13z"/>
<path d="M2166 4103 c-10 -10 -7 -33 5 -33 5 0 8 4 5 9 -4 5 -1 11 6 13 8 3 9
6 1 11 -5 4 -13 4 -17 0z"/>
<path d="M2203 4095 c-3 -9 -3 -18 -1 -21 3 -3 8 4 11 16 6 23 -1 27 -10 5z"/>
<path d="M1701 4088 c-1 -10 6 -18 14 -18 8 0 15 8 15 18 0 13 -2 14 -9 3 -7
-11 -9 -11 -14 0 -4 10 -6 9 -6 -3z"/>
<path d="M1988 3858 l162 -163 137 138 138 137 -50 0 c-49 0 -51 -1 -130 -80
-44 -44 -85 -80 -90 -80 -6 0 -57 47 -115 105 l-105 105 -55 0 -55 0 163 -162z"/>
<path d="M1901 3583 c-10 -22 -14 -24 -22 -12 -7 11 -9 9 -9 -8 0 -13 4 -23 8
-23 10 0 46 60 40 66 -3 2 -10 -8 -17 -23z"/>
<path d="M1710 3592 c0 -5 7 -15 16 -23 14 -12 14 -14 -2 -26 -10 -7 -13 -13
-7 -13 25 0 31 25 12 49 -10 13 -19 19 -19 13z"/>
<path d="M2177 3593 c-4 -3 -7 -20 -6 -37 l1 -31 9 34 c10 33 8 47 -4 34z"/>
<path d="M1953 3575 c0 -8 4 -12 9 -9 5 3 6 10 3 15 -9 13 -12 11 -12 -6z"/>
<path d="M2016 3577 c3 -10 9 -15 12 -12 3 3 0 11 -7 18 -10 9 -11 8 -5 -6z"/>
<path d="M2048 3567 c-4 -21 -2 -25 7 -17 9 8 14 7 17 -2 3 -7 7 -2 11 11 4
16 2 21 -8 17 -8 -3 -16 0 -18 7 -2 7 -6 0 -9 -16z"/>
<path d="M2135 3565 c0 -13 3 -21 8 -18 4 2 7 10 7 18 0 8 -3 16 -7 18 -5 3
-8 -5 -8 -18z"/>
<path d="M2233 3575 c0 -8 4 -15 9 -15 4 0 8 4 8 9 0 6 -4 12 -8 15 -5 3 -9
-1 -9 -9z"/>
<path d="M2275 3580 c-3 -5 -3 -15 1 -21 3 -6 0 -16 -7 -21 -12 -8 -11 -9 1
-5 8 2 15 15 15 30 1 29 -1 32 -10 17z"/>
<path d="M2425 3565 c0 -13 3 -21 8 -18 4 2 7 10 7 18 0 8 -3 16 -7 18 -5 3
-8 -5 -8 -18z"/>
<path d="M2532 3565 c0 -16 2 -22 5 -12 2 9 2 23 0 30 -3 6 -5 -1 -5 -18z"/>
<path d="M1770 3569 c0 -5 5 -7 10 -4 6 3 10 8 10 11 0 2 -4 4 -10 4 -5 0 -10
-5 -10 -11z"/>
<path d="M1811 3564 c0 -11 3 -14 6 -6 3 7 2 16 -1 19 -3 4 -6 -2 -5 -13z"/>
<path d="M1927 3567 c-9 -23 -1 -37 21 -37 11 0 13 3 6 8 -7 4 -13 16 -16 27
-3 19 -4 19 -11 2z"/>
<path d="M2103 3564 c-3 -8 -2 -19 3 -24 5 -5 9 1 9 16 0 28 -3 30 -12 8z"/>
<path d="M2208 3568 c-7 -17 17 -46 29 -34 3 3 1 6 -5 6 -6 0 -12 10 -14 23
-3 18 -4 19 -10 5z"/>
<path d="M2332 3564 c-17 -19 -15 -29 3 -14 12 10 15 9 15 -6 0 -13 3 -15 11
-7 9 9 8 15 -2 26 -12 11 -17 12 -27 1z"/>
<path d="M2393 3564 c-3 -8 -2 -19 3 -24 5 -5 9 1 9 16 0 28 -3 30 -12 8z"/>
<path d="M2460 3560 c0 -11 2 -20 4 -20 2 0 6 9 9 20 3 11 1 20 -4 20 -5 0 -9
-9 -9 -20z"/>
<path d="M2507 3573 c-9 -9 -9 -43 1 -43 4 0 7 11 7 25 0 14 0 25 -1 25 0 0
-4 -3 -7 -7z"/>
<path d="M1585 3459 c-11 -16 -1 -19 13 -3 7 8 8 14 3 14 -5 0 -13 -5 -16 -11z"/>
<path d="M1714 3455 c-3 -8 -4 -20 -2 -27 3 -7 7 -1 10 15 6 29 1 36 -8 12z"/>
<path d="M2037 3455 c-4 -8 -2 -17 2 -20 5 -2 11 4 14 15 6 23 -8 27 -16 5z"/>
<path d="M2100 3450 c0 -12 7 -20 18 -20 13 0 14 2 3 9 -7 5 -10 14 -7 20 4 6
2 11 -3 11 -6 0 -11 -9 -11 -20z"/>
<path d="M1643 3435 c-3 -9 -3 -19 1 -22 3 -4 6 1 6 10 0 10 7 17 16 17 11 0
14 -6 9 -22 -5 -20 -4 -21 5 -5 6 9 8 22 5 27 -9 15 -35 12 -42 -5z"/>
<path d="M1738 3425 c-3 -14 -1 -25 3 -25 5 0 9 11 9 25 0 14 -2 25 -4 25 -2
0 -6 -11 -8 -25z"/>
<path d="M1770 3431 c-7 -14 -7 -22 2 -27 7 -4 8 -3 4 4 -4 7 -2 12 4 12 6 0
8 5 4 12 -5 8 -2 9 9 5 10 -3 17 -2 17 3 0 18 -29 11 -40 -9z"/>
<path d="M1890 3431 c-7 -13 -7 -22 0 -26 9 -6 15 8 11 29 -1 5 5 6 14 3 8 -4
15 -2 15 3 0 18 -29 11 -40 -9z"/>
<path d="M1976 3441 c-3 -5 2 -8 12 -7 10 0 16 -5 14 -14 -3 -11 -1 -12 8 -3
7 6 9 16 6 22 -9 13 -33 14 -40 2z"/>
<path d="M2160 3439 c0 -5 5 -7 11 -3 6 3 15 0 20 -7 7 -11 9 -10 9 4 0 10 -8
17 -20 17 -11 0 -20 -5 -20 -11z"/>
<path d="M2225 3439 c-4 -6 -5 -12 -2 -15 2 -3 7 2 10 11 7 17 1 20 -8 4z"/>
<path d="M2284 3435 c-3 -8 -4 -20 -2 -27 3 -7 7 -1 10 15 6 29 1 36 -8 12z"/>
<path d="M2320 3439 c0 -5 5 -7 11 -3 6 3 15 0 20 -7 7 -11 9 -10 9 4 0 10 -8
17 -20 17 -11 0 -20 -5 -20 -11z"/>
<path d="M2387 3443 c-4 -3 -7 -16 -7 -27 0 -17 2 -18 9 -6 6 8 7 18 4 24 -4
5 1 7 10 3 10 -3 17 -2 17 3 0 11 -23 13 -33 3z"/>
<path d="M2440 3435 c-11 -13 -11 -18 0 -28 10 -9 11 -9 6 1 -4 6 -2 12 4 12
6 0 8 5 4 12 -5 8 -2 9 9 5 10 -3 17 -2 17 3 0 15 -26 12 -40 -5z"/>
<path d="M2495 3429 c-10 -30 -2 -32 12 -3 6 13 7 24 3 24 -5 0 -12 -9 -15
-21z"/>
<path d="M2567 3428 c-8 -29 -1 -36 8 -9 8 28 23 27 28 -1 4 -20 4 -19 6 5 1
20 -4 27 -18 27 -11 0 -21 -9 -24 -22z"/>
<path d="M1825 3429 c-4 -6 2 -19 13 -29 20 -18 20 -18 25 1 4 16 2 19 -15 13
-17 -5 -20 -3 -15 10 7 18 2 22 -8 5z"/>
<path d="M1576 3415 c4 -8 11 -15 16 -15 6 0 5 6 -2 15 -7 8 -14 15 -16 15 -2
0 -1 -7 2 -15z"/>
<path d="M2251 3413 c0 -12 -9 -27 -18 -32 -10 -6 -13 -11 -7 -11 18 0 36 27
31 47 -4 14 -5 14 -6 -4z"/>
<path d="M2630 3421 c0 -6 4 -13 10 -16 6 -3 7 1 4 9 -7 18 -14 21 -14 7z"/>
<path d="M2090 3409 c0 -5 9 -9 20 -9 11 0 20 2 20 4 0 2 -9 6 -20 9 -11 3
-20 1 -20 -4z"/>
<path d="M2661 3408 c-1 -9 -9 -22 -18 -27 -10 -6 -13 -11 -7 -11 17 0 37 27
31 42 -4 8 -6 7 -6 -4z"/>
</g>
</svg>
